<?xml version="1.0" encoding="iso-8859-1"?>
<!-- Uploaded to: SVG Repo, www.svgrepo.com, Generator: SVG Repo Mixer Tools -->
<svg fill="#000000" height="800px" width="800px" version="1.1" id="Layer_1" xmlns="http://www.w3.org/2000/svg" xmlns:xlink="http://www.w3.org/1999/xlink" 
	 viewBox="0 0 512 512" xml:space="preserve">
<g>
	<g>
		<path d="M511.486,140.325c-2.445-10.48-12.921-16.991-23.403-14.549l-141.59,33.035c-3.98,0.928-7.383,3.021-9.945,5.827
			c16.069,1.42,29.473,13.103,33.129,28.781l49.05-11.443L360.48,398.698l-48.995,7.646c0.429-2.071-0.291,5.283,8.529-95.592
			c0.723-8.272-3.219-16.258-10.226-20.714l-39.74-25.272l-0.185-17.208c-8.092,1.008-9.415,1.253-12.376,1.253
			c-15.593,0-27.231-9.763-30.747-16.518l-36.055-69.283l52.323,60.818c4.115,4.783,10.463,7.293,16.843,6.498l75.736-9.435
			c12.314-1.533,18.502-14.165,16.594-21.321c-1.303-10.456-10.88-17.89-21.316-16.592l-65.572,8.169l-47.383-55.076l51.135,35.372
			l-0.378-35.09c-0.169-15.73-13.058-28.344-28.788-28.174l-51.229,0.596c-6.626,0.077-13.124,1.837-18.883,5.115l-68.321,38.881
			c-11.514,6.546-13.032,22.585-2.925,31.167l63.476,53.912l1.477,45.78l-16.734,58.448l-62.13,68.279
			c-8.195,9.006-7.607,22.898,1.247,31.197l-63.873,9.968c-14.181,2.213-23.88,15.498-21.667,29.675
			c2.21,14.167,15.485,23.875,29.674,21.663l350.52-54.699l46.471,48.875c7.413,7.796,19.746,8.112,27.547,0.694
			c7.799-7.415,8.111-19.748,0.695-27.547l-27.888-29.33l10.536-1.644c14.176-2.212,23.875-15.498,21.663-29.674
			c-2.212-14.176-15.493-23.875-29.674-21.663l-13.222,2.063l59.395-220.992c0.032-0.119,0.056-0.239,0.086-0.358l20.82-4.857
			C507.418,161.283,513.932,150.806,511.486,140.325z M144.057,172.491l17.125-9.736l0.264,24.505L144.057,172.491z
			 M270.354,412.763l-148.915,23.239l61.713-67.82c2.305-2.531,3.992-5.561,4.935-8.851l21.818-76.201l5.985-0.065l58.612,37.274
			l-6.953,79.533C267.142,404.533,268.209,408.979,270.354,412.763z"/>
	</g>
</g>
<g>
	<g>
		<circle cx="221.166" cy="50.99" r="42.163"/>
	</g>
</g>
</svg>